<?plantuml 1.2026.1?><svg xmlns="http://www.w3.org/2000/svg" xmlns:xlink="http://www.w3.org/1999/xlink" contentStyleType="text/css" data-diagram-type="CLASS" height="283.75px" preserveAspectRatio="none" style="width:935px;height:283px;background:#FFFFFF;" version="1.1" viewBox="0 0 935 283" width="935px" zoomAndPan="magnify"><defs/><g><!--class Dao--><g class="entity" data-qualified-name="Dao" data-source-line="14" id="ent0002"><rect fill="#E8DAEF" height="151.8555" rx="3.125" ry="3.125" style="stroke:#181818;stroke-width:1.75;" width="266.9641" x="289.5" y="8.75"/><ellipse cx="400.2166" cy="28.75" fill="#B4A7E5" rx="13.75" ry="13.75" style="stroke:#181818;stroke-width:1.25;"/><path d="M396.7986,24.3359 L396.7986,21.9531 L404.9236,21.9531 L404.9236,24.3359 L402.2087,24.3359 L402.2087,33.2422 L404.9236,33.2422 L404.9236,35.625 L396.7986,35.625 L396.7986,33.2422 L399.5134,33.2422 L399.5134,24.3359 L396.7986,24.3359 Z " fill="#000000"/><text fill="#000000" font-family="Helvetica" font-size="17.5" font-style="italic" lengthAdjust="spacing" textLength="34.906" x="425.8416" y="34.8083">Dao</text><line style="stroke:#181818;stroke-width:1.75;" x1="290.75" x2="555.2141" y1="48.75" y2="48.75"/><text fill="#000000" font-family="Helvetica" font-size="17.5" lengthAdjust="spacing" textLength="170.8643" x="297" y="69.9939">+findAll() : List&lt;T&gt;</text><text fill="#000000" font-family="Helvetica" font-size="17.5" lengthAdjust="spacing" textLength="251.9641" x="297" y="90.365">+getById(cle) : Optional&lt;T&gt;</text><text fill="#000000" font-family="Helvetica" font-size="17.5" lengthAdjust="spacing" textLength="88.9014" x="297" y="110.7361">+insert(T)</text><text fill="#000000" font-family="Helvetica" font-size="17.5" lengthAdjust="spacing" textLength="100.6677" x="297" y="131.1072">+update(T)</text><text fill="#000000" font-family="Helvetica" font-size="17.5" lengthAdjust="spacing" textLength="108.7" x="297" y="151.4783">+delete(cle)</text></g><!--class TaxonDao--><g class="entity" data-qualified-name="TaxonDao" data-source-line="22" id="ent0003"><rect fill="#D4E6F1" height="40" rx="3.125" ry="3.125" style="stroke:#181818;stroke-width:1.75;" width="128.4741" x="8.75" y="235.6"/><ellipse cx="27.5" cy="255.6" fill="#ADD1B2" rx="13.75" ry="13.75" style="stroke:#181818;stroke-width:1.25;"/><path d="M31.1523,262.0844 Q30.5078,262.4164 29.8047,262.5727 Q29.1016,262.7484 28.3203,262.7484 Q25.5469,262.7484 24.082,260.932 Q22.6367,259.0961 22.6367,255.6586 Q22.6367,252.2016 24.082,250.3852 Q25.5469,248.5492 28.3203,248.5492 Q29.1016,248.5492 29.8047,248.725 Q30.5273,248.8813 31.1523,249.2133 L31.1523,252.2211 Q30.4492,251.5766 29.7852,251.2836 Q29.1406,250.9906 28.4375,250.9906 Q26.9727,250.9906 26.2109,252.1625 Q25.4492,253.3344 25.4492,255.6586 Q25.4492,257.9633 26.2109,259.1352 Q26.9727,260.307 28.4375,260.307 Q29.1406,260.307 29.7852,260.0141 Q30.4492,259.7211 31.1523,259.0766 L31.1523,262.0844 Z " fill="#000000"/><text fill="#000000" font-family="Helvetica" font-size="17.5" lengthAdjust="spacing" textLength="88.4741" x="45" y="261.6583">TaxonDao</text></g><!--class SiteDao--><g class="entity" data-qualified-name="SiteDao" data-source-line="23" id="ent0004"><rect fill="#D4E6F1" height="40" rx="3.125" ry="3.125" style="stroke:#181818;stroke-width:1.75;" width="108.5046" x="181.2375" y="235.6"/><ellipse cx="199.9875" cy="255.6" fill="#ADD1B2" rx="13.75" ry="13.75" style="stroke:#181818;stroke-width:1.25;"/><path d="M203.6398,262.0844 Q202.9953,262.4164 202.2922,262.5727 Q201.5891,262.7484 200.8078,262.7484 Q198.0344,262.7484 196.5695,260.932 Q195.1242,259.0961 195.1242,255.6586 Q195.1242,252.2016 196.5695,250.3852 Q198.0344,248.5492 200.8078,248.5492 Q201.5891,248.5492 202.2922,248.725 Q203.0148,248.8813 203.6398,249.2133 L203.6398,252.2211 Q202.9367,251.5766 202.2727,251.2836 Q201.6281,250.9906 200.925,250.9906 Q199.4602,250.9906 198.6984,252.1625 Q197.9367,253.3344 197.9367,255.6586 Q197.9367,257.9633 198.6984,259.1352 Q199.4602,260.307 200.925,260.307 Q201.6281,260.307 202.2727,260.0141 Q202.9367,259.7211 203.6398,259.0766 L203.6398,262.0844 Z " fill="#000000"/><text fill="#000000" font-family="Helvetica" font-size="17.5" lengthAdjust="spacing" textLength="68.5046" x="217.4875" y="261.6583">SiteDao</text></g><!--class PointEcouteDao--><g class="entity" data-qualified-name="PointEcouteDao" data-source-line="24" id="ent0005"><rect fill="#EAECEE" height="40" rx="3.125" ry="3.125" style="stroke:#181818;stroke-width:1.75;" width="179.0857" x="333.45" y="235.6"/><ellipse cx="352.2" cy="255.6" fill="#ADD1B2" rx="13.75" ry="13.75" style="stroke:#181818;stroke-width:1.25;"/><path d="M355.8523,262.0844 Q355.2078,262.4164 354.5047,262.5727 Q353.8016,262.7484 353.0203,262.7484 Q350.2469,262.7484 348.782,260.932 Q347.3367,259.0961 347.3367,255.6586 Q347.3367,252.2016 348.782,250.3852 Q350.2469,248.5492 353.0203,248.5492 Q353.8016,248.5492 354.5047,248.725 Q355.2273,248.8813 355.8523,249.2133 L355.8523,252.2211 Q355.1492,251.5766 354.4852,251.2836 Q353.8406,250.9906 353.1375,250.9906 Q351.6727,250.9906 350.9109,252.1625 Q350.1492,253.3344 350.1492,255.6586 Q350.1492,257.9633 350.9109,259.1352 Q351.6727,260.307 353.1375,260.307 Q353.8406,260.307 354.4852,260.0141 Q355.1492,259.7211 355.8523,259.0766 L355.8523,262.0844 Z " fill="#000000"/><text fill="#000000" font-family="Helvetica" font-size="17.5" lengthAdjust="spacing" textLength="139.0857" x="369.7" y="261.6583">PointEcouteDao</text></g><!--class PassageDao--><g class="entity" data-qualified-name="PassageDao" data-source-line="25" id="ent0006"><rect fill="#EAECEE" height="40" rx="3.125" ry="3.125" style="stroke:#181818;stroke-width:1.75;" width="147.0166" x="555.725" y="235.6"/><ellipse cx="574.475" cy="255.6" fill="#ADD1B2" rx="13.75" ry="13.75" style="stroke:#181818;stroke-width:1.25;"/><path d="M578.1273,262.0844 Q577.4828,262.4164 576.7797,262.5727 Q576.0766,262.7484 575.2953,262.7484 Q572.5219,262.7484 571.057,260.932 Q569.6117,259.0961 569.6117,255.6586 Q569.6117,252.2016 571.057,250.3852 Q572.5219,248.5492 575.2953,248.5492 Q576.0766,248.5492 576.7797,248.725 Q577.5023,248.8813 578.1273,249.2133 L578.1273,252.2211 Q577.4242,251.5766 576.7602,251.2836 Q576.1156,250.9906 575.4125,250.9906 Q573.9477,250.9906 573.1859,252.1625 Q572.4242,253.3344 572.4242,255.6586 Q572.4242,257.9633 573.1859,259.1352 Q573.9477,260.307 575.4125,260.307 Q576.1156,260.307 576.7602,260.0141 Q577.4242,259.7211 578.1273,259.0766 L578.1273,262.0844 Z " fill="#000000"/><text fill="#000000" font-family="Helvetica" font-size="17.5" lengthAdjust="spacing" textLength="107.0166" x="591.975" y="261.6583">PassageDao</text></g><!--class ObservationDao--><g class="entity" data-qualified-name="ObservationDao" data-source-line="26" id="ent0007"><rect fill="#EAECEE" height="40" rx="3.125" ry="3.125" style="stroke:#181818;stroke-width:1.75;" width="181.4697" x="746" y="235.6"/><ellipse cx="764.75" cy="255.6" fill="#ADD1B2" rx="13.75" ry="13.75" style="stroke:#181818;stroke-width:1.25;"/><path d="M768.4023,262.0844 Q767.7578,262.4164 767.0547,262.5727 Q766.3516,262.7484 765.5703,262.7484 Q762.7969,262.7484 761.332,260.932 Q759.8867,259.0961 759.8867,255.6586 Q759.8867,252.2016 761.332,250.3852 Q762.7969,248.5492 765.5703,248.5492 Q766.3516,248.5492 767.0547,248.725 Q767.7773,248.8813 768.4023,249.2133 L768.4023,252.2211 Q767.6992,251.5766 767.0352,251.2836 Q766.3906,250.9906 765.6875,250.9906 Q764.2227,250.9906 763.4609,252.1625 Q762.6992,253.3344 762.6992,255.6586 Q762.6992,257.9633 763.4609,259.1352 Q764.2227,260.307 765.6875,260.307 Q766.3906,260.307 767.0352,260.0141 Q767.6992,259.7211 768.4023,259.0766 L768.4023,262.0844 Z " fill="#000000"/><text fill="#000000" font-family="Helvetica" font-size="17.5" lengthAdjust="spacing" textLength="141.4697" x="782.25" y="261.6583">ObservationDao</text></g><!--reverse link Dao to TaxonDao--><g class="link" data-entity-1="ent0002" data-entity-2="ent0003" data-link-type="extension" data-source-line="28" id="lnk8"><path codeLine="28" d="M268.9004,160.0691 C205.9879,190.3441 155.8125,214.4875 112.9375,235.125" fill="none" id="Dao-backto-TaxonDao" style="stroke:#34495E;stroke-width:1.25;stroke-dasharray:8.75,8.75;"/><polygon fill="none" points="289.175,150.3125,265.6482,153.3109,272.1526,166.8273,289.175,150.3125" style="stroke:#34495E;stroke-width:1.25;"/></g><!--reverse link Dao to SiteDao--><g class="link" data-entity-1="ent0002" data-entity-2="ent0004" data-link-type="extension" data-source-line="29" id="lnk9"><path codeLine="29" d="M322.9126,175.8119 C292.4001,203.2244 277.1375,216.9375 256.7875,235.225" fill="none" id="Dao-backto-SiteDao" style="stroke:#34495E;stroke-width:1.25;stroke-dasharray:8.75,8.75;"/><polygon fill="none" points="339.65,160.775,317.9003,170.2328,327.9249,181.3911,339.65,160.775" style="stroke:#34495E;stroke-width:1.25;"/></g><!--reverse link Dao to PointEcouteDao--><g class="link" data-entity-1="ent0002" data-entity-2="ent0005" data-link-type="extension" data-source-line="30" id="lnk10"><path codeLine="30" d="M422.9875,183.275 C422.9875,210.6875 422.9875,216.9375 422.9875,235.225" fill="none" id="Dao-backto-PointEcouteDao" style="stroke:#34495E;stroke-width:1.25;stroke-dasharray:8.75,8.75;"/><polygon fill="none" points="422.9875,160.775,415.4875,183.275,430.4875,183.275,422.9875,160.775" style="stroke:#34495E;stroke-width:1.25;"/></g><!--reverse link Dao to PassageDao--><g class="link" data-entity-1="ent0002" data-entity-2="ent0006" data-link-type="extension" data-source-line="31" id="lnk11"><path codeLine="31" d="M532.0788,175.0048 C565.6538,202.4173 583.425,216.9375 605.8125,235.225" fill="none" id="Dao-backto-PassageDao" style="stroke:#34495E;stroke-width:1.25;stroke-dasharray:8.75,8.75;"/><polygon fill="none" points="514.65,160.775,527.3355,180.8144,536.822,169.1952,514.65,160.775" style="stroke:#34495E;stroke-width:1.25;"/></g><!--reverse link Dao to ObservationDao--><g class="link" data-entity-1="ent0002" data-entity-2="ent0007" data-link-type="extension" data-source-line="32" id="lnk12"><path codeLine="32" d="M577.5892,148.8589 C657.3892,181.3464 733.0125,212.125 789.35,235.0625" fill="none" id="Dao-backto-ObservationDao" style="stroke:#34495E;stroke-width:1.25;stroke-dasharray:8.75,8.75;"/><polygon fill="none" points="556.75,140.375,574.7613,155.8053,580.4172,141.9125,556.75,140.375" style="stroke:#34495E;stroke-width:1.25;"/></g><?plantuml-src TP5RRzim38NV_Ik8zY4EjhdDcWoxT0ESnbcB5Kk067jN9COc8ai69QVjBlzzik4rxjQzIE3vA9u3SGJNX2nObeIWqC4YNK6ShsSl0OqKxE7a5bln953G8xn7bYGHBiP9D8BDjy_0MA11HgW5GrAGBvljcN0ElJjZD0hvbI9HiAXSuag8lx3T4sWhXUvcp3KsyB4pHida7IXX76Y4V0qVe61oFLQZnY18syYolQfQeqU81HpG48TX9OMGMDN-0IgijiWkSdio8PYem9L2sJio1Uo4TZWWgYQOl3uVAhWJZVPBQ_o6lYDCPi_3hw92k4PzG4zI37ga3Z-GUi-qRJpUI6kwEUV_RJbQJV_kcLiEdvYN9FS6dOD9Ccn9cUtTbTMMuVHYEdqtmoWYuv5t8gnf8IoSPcyNQRQ47n70YnqPbMeTZ-4zt9Bpb_cdLYxGpnzkL2mrjcHLUx96w9wISSW-piTjqTHAUEmBXUqEkcVHhoZgya8kxgtfd1VJxCroqiiRylYlkhOXRHQMsiCipQwox0yCXoYU0QjjI7GGRSeXZDhYycUIF6OuAhtzKNZgFD0VJO_QKx_V?></g></svg>