<?plantuml 1.2026.1?><svg xmlns="http://www.w3.org/2000/svg" xmlns:xlink="http://www.w3.org/1999/xlink" contentStyleType="text/css" data-diagram-type="CLASS" height="380px" preserveAspectRatio="none" style="width:450px;height:380px;background:#FFFFFF;" version="1.1" viewBox="0 0 450 380" width="450px" zoomAndPan="magnify"><defs/><g><!--class SitesDao--><g class="entity" data-qualified-name="SitesDao" data-source-line="15" id="ent0002"><rect fill="#E8DAEF" height="90.7422" rx="3.125" ry="3.125" style="stroke:#181818;stroke-width:1.75;" width="208.7732" x="105.425" y="145"/><ellipse cx="165.6881" cy="165" fill="#B4A7E5" rx="13.75" ry="13.75" style="stroke:#181818;stroke-width:1.25;"/><path d="M162.2701,160.5859 L162.2701,158.2031 L170.3951,158.2031 L170.3951,160.5859 L167.6802,160.5859 L167.6802,169.4922 L170.3951,169.4922 L170.3951,171.875 L162.2701,171.875 L162.2701,169.4922 L164.9849,169.4922 L164.9849,160.5859 L162.2701,160.5859 Z " fill="#000000"/><text fill="#000000" font-family="Helvetica" font-size="17.5" font-style="italic" lengthAdjust="spacing" textLength="77.6221" x="191.3131" y="171.0583">SitesDao</text><line style="stroke:#181818;stroke-width:1.75;" x1="106.675" x2="312.9482" y1="185" y2="185"/><text fill="#000000" font-family="Helvetica" font-size="17.5" lengthAdjust="spacing" textLength="193.7732" x="112.925" y="206.2439">+findAll() : List&lt;Site&gt;</text><text fill="#000000" font-family="Helvetica" font-size="17.5" lengthAdjust="spacing" textLength="111.8103" x="112.925" y="226.615">+insert(Site)</text></g><!--class SitesDaoJdbc--><g class="entity" data-qualified-name="SitesDaoJdbc" data-source-line="19" id="ent0003"><rect fill="#D4E6F1" height="40" rx="3.125" ry="3.125" style="stroke:#181818;stroke-width:1.75;" width="154.6216" x="8.75" y="331.9875"/><ellipse cx="27.5" cy="351.9875" fill="#ADD1B2" rx="13.75" ry="13.75" style="stroke:#181818;stroke-width:1.25;"/><path d="M31.1523,358.4719 Q30.5078,358.8039 29.8047,358.9602 Q29.1016,359.1359 28.3203,359.1359 Q25.5469,359.1359 24.082,357.3195 Q22.6367,355.4836 22.6367,352.0461 Q22.6367,348.5891 24.082,346.7727 Q25.5469,344.9367 28.3203,344.9367 Q29.1016,344.9367 29.8047,345.1125 Q30.5273,345.2687 31.1523,345.6008 L31.1523,348.6086 Q30.4492,347.9641 29.7852,347.6711 Q29.1406,347.3781 28.4375,347.3781 Q26.9727,347.3781 26.2109,348.55 Q25.4492,349.7219 25.4492,352.0461 Q25.4492,354.3508 26.2109,355.5227 Q26.9727,356.6945 28.4375,356.6945 Q29.1406,356.6945 29.7852,356.4016 Q30.4492,356.1086 31.1523,355.4641 L31.1523,358.4719 Z " fill="#000000"/><text fill="#000000" font-family="Helvetica" font-size="17.5" lengthAdjust="spacing" textLength="114.6216" x="45" y="358.0458">SitesDaoJdbc</text></g><!--class SitesDaoEnMemoire--><g class="entity" data-qualified-name="SitesDaoEnMemoire" data-source-line="20" id="ent0004"><rect fill="#D4E6F1" height="40" rx="3.125" ry="3.125" style="stroke:#181818;stroke-width:1.75;" width="216.2134" x="225.45" y="331.9875"/><ellipse cx="244.2" cy="351.9875" fill="#ADD1B2" rx="13.75" ry="13.75" style="stroke:#181818;stroke-width:1.25;"/><path d="M247.8523,358.4719 Q247.2078,358.8039 246.5047,358.9602 Q245.8016,359.1359 245.0203,359.1359 Q242.2469,359.1359 240.782,357.3195 Q239.3367,355.4836 239.3367,352.0461 Q239.3367,348.5891 240.782,346.7727 Q242.2469,344.9367 245.0203,344.9367 Q245.8016,344.9367 246.5047,345.1125 Q247.2273,345.2687 247.8523,345.6008 L247.8523,348.6086 Q247.1492,347.9641 246.4852,347.6711 Q245.8406,347.3781 245.1375,347.3781 Q243.6727,347.3781 242.9109,348.55 Q242.1492,349.7219 242.1492,352.0461 Q242.1492,354.3508 242.9109,355.5227 Q243.6727,356.6945 245.1375,356.6945 Q245.8406,356.6945 246.4852,356.4016 Q247.1492,356.1086 247.8523,355.4641 L247.8523,358.4719 Z " fill="#000000"/><text fill="#000000" font-family="Helvetica" font-size="17.5" lengthAdjust="spacing" textLength="176.2134" x="261.7" y="358.0458">SitesDaoEnMemoire</text></g><!--class SitesViewModel--><g class="entity" data-qualified-name="SitesViewModel" data-source-line="21" id="ent0005"><rect fill="#EAECEE" height="40" rx="3.125" ry="3.125" style="stroke:#181818;stroke-width:1.75;" width="177.1716" x="121.225" y="8.75"/><ellipse cx="139.975" cy="28.75" fill="#ADD1B2" rx="13.75" ry="13.75" style="stroke:#181818;stroke-width:1.25;"/><path d="M143.6273,35.2344 Q142.9828,35.5664 142.2797,35.7227 Q141.5766,35.8984 140.7953,35.8984 Q138.0219,35.8984 136.557,34.082 Q135.1117,32.2461 135.1117,28.8086 Q135.1117,25.3516 136.557,23.5352 Q138.0219,21.6992 140.7953,21.6992 Q141.5766,21.6992 142.2797,21.875 Q143.0023,22.0313 143.6273,22.3633 L143.6273,25.3711 Q142.9242,24.7266 142.2602,24.4336 Q141.6156,24.1406 140.9125,24.1406 Q139.4477,24.1406 138.6859,25.3125 Q137.9242,26.4844 137.9242,28.8086 Q137.9242,31.1133 138.6859,32.2852 Q139.4477,33.457 140.9125,33.457 Q141.6156,33.457 142.2602,33.1641 Q142.9242,32.8711 143.6273,32.2266 L143.6273,35.2344 Z " fill="#000000"/><text fill="#000000" font-family="Helvetica" font-size="17.5" lengthAdjust="spacing" textLength="137.1716" x="157.475" y="34.8083">SitesViewModel</text></g><!--link SitesViewModel to SitesDao--><g class="link" data-entity-1="ent0005" data-entity-2="ent0002" data-link-type="dependency" data-source-line="23" id="lnk6"><path codeLine="23" d="M209.8125,48.875 C209.8125,72.3375 209.8125,105.6375 209.8125,137.2" fill="none" id="SitesViewModel-to-SitesDao" style="stroke:#34495E;stroke-width:1.25;stroke-dasharray:8.75,8.75;"/><polygon fill="#34495E" points="209.8125,144.7,214.8125,133.45,209.8125,138.45,204.8125,133.45,209.8125,144.7" style="stroke:#34495E;stroke-width:1.25;"/><text fill="#34495E" font-family="Helvetica" font-size="16.25" lengthAdjust="spacing" textLength="173.3386" x="211.0625" y="102.5836">depend de l'interface</text></g><!--reverse link SitesDao to SitesDaoJdbc--><g class="link" data-entity-1="ent0002" data-entity-2="ent0003" data-link-type="extension" data-source-line="24" id="lnk7"><path codeLine="24" d="M97.2068,250.2088 C84.1193,260.4713 90.2,258.825 82.3125,273.2375 C72.4875,291.2 75.65,315.15 79.8375,331.65" fill="none" id="SitesDao-backto-SitesDaoJdbc" style="stroke:#34495E;stroke-width:1.25;stroke-dasharray:8.75,8.75;"/><polygon fill="none" points="114.9125,236.325,92.5789,244.3069,101.8348,256.1107,114.9125,236.325" style="stroke:#34495E;stroke-width:1.25;"/><text fill="#34495E" font-family="Helvetica" font-size="16.25" lengthAdjust="spacing" textLength="195.0635" x="83.5625" y="289.5711">production (base reelle)</text></g><!--reverse link SitesDao to SitesDaoEnMemoire--><g class="link" data-entity-1="ent0002" data-entity-2="ent0004" data-link-type="extension" data-source-line="25" id="lnk8"><path codeLine="25" d="M268.57,252.6941 C279.295,264.4066 275.2375,260.7 284.8125,273.2375 C299.2875,292.1875 313.5375,315.5375 322.85,331.625" fill="none" id="SitesDao-backto-SitesDaoEnMemoire" style="stroke:#34495E;stroke-width:1.25;stroke-dasharray:8.75,8.75;"/><polygon fill="none" points="253.375,236.1,263.0386,257.759,274.1013,247.6291,253.375,236.1" style="stroke:#34495E;stroke-width:1.25;"/><text fill="#34495E" font-family="Helvetica" font-size="16.25" lengthAdjust="spacing" textLength="130.1428" x="299.8125" y="289.5711">test (sans base)</text></g><?plantuml-src XLBBRjim4BppAnRmmJA2Ad7Z5AqH151ZkS-a1nUvK-BOMfWFWQJYFl-zL0BOgk6Y9u8xmzbPxenfnH5X8HtDIOCMnHTwxAXsne0w2s8RuTUo1fsHGlUDsBGQ1ZRAoCu6oYfdkq3JbvDSZ6dry8uyDh3me5PwoZSScwuwbo4WXdCFg-1VA9ORBqt8GqFP9--sJDhLKYUDXXK8fetVoS1Ky464BTka9Gs5HYgtOxkXjTG10qIrd3nS32jOoqx7fRDnnJz0qwlJuBrCexw7VaJaMWuujKwcYnWzLrt4XzhP9vsBVr8EhMR7dBVEfxc_DbnlBKBwhdn8ARntkrkddQVHvMpsvWh7O2_zNy9pxqiX3alRRtTKlbuKvP9-2gApDLjLQ9rDqj8_SuZNFUscHzW6-9ZrzuduBPwyxqK-gggcqM9MlbfEZw3Iti4uJai_WJymTdTEGISNHNbRba8SrVFyPXX4XJRb91san_jPn9vm_IlF_pOrfzOxrTLz95CYPK1A8RHEGvn-TV0xfrI9b0MPmjo_dFm1?></g></svg>