<?plantuml 1.2026.1?><svg xmlns="http://www.w3.org/2000/svg" xmlns:xlink="http://www.w3.org/1999/xlink" contentStyleType="text/css" data-diagram-type="CLASS" height="408.75px" preserveAspectRatio="none" style="width:801px;height:408px;background:#FFFFFF;" version="1.1" viewBox="0 0 801 408" width="801.25px" zoomAndPan="magnify"><defs/><g><!--class Site--><g class="entity" data-qualified-name="Site" data-source-line="15" id="ent0002"><rect fill="#D5F5E3" height="159.3555" rx="3.125" ry="3.125" style="stroke:#181818;stroke-width:1.875;" width="159.2896" x="8.75" y="8.75"/><ellipse cx="32.9555" cy="27.5" fill="#ADD1B2" rx="12.5" ry="12.5" style="stroke:#181818;stroke-width:1.25;"/><path d="M35.9438,33.3789 Q35.3383,33.6914 34.6743,33.8477 Q34.0297,34.0039 33.3071,34.0039 Q30.7289,34.0039 29.3618,32.3047 Q28.0141,30.6055 28.0141,27.3828 Q28.0141,24.1602 29.3618,22.4609 Q30.7289,20.7617 33.3071,20.7617 Q34.0297,20.7617 34.6938,20.918 Q35.3578,21.0742 35.9438,21.3672 L35.9438,24.1797 Q35.2993,23.5742 34.6743,23.3008 Q34.0688,23.0273 33.4243,23.0273 Q32.0375,23.0273 31.3344,24.1211 Q30.6313,25.2148 30.6313,27.3828 Q30.6313,29.5313 31.3344,30.6445 Q32.0375,31.7383 33.4243,31.7383 Q34.0688,31.7383 34.6743,31.4648 Q35.2993,31.1719 35.9438,30.5859 L35.9438,33.3789 Z " fill="#000000"/><text fill="#000000" font-family="Helvetica" font-size="17.5" lengthAdjust="spacing" textLength="106.8884" x="50.6956" y="33.5583">Site de suivi</text><line style="stroke:#181818;stroke-width:1.875;" x1="10" x2="166.7896" y1="46.25" y2="46.25"/><text fill="#000000" font-family="Helvetica" font-size="17.5" lengthAdjust="spacing" textLength="70.9058" x="16.25" y="67.4939">n&#176; carr&#233;</text><text fill="#000000" font-family="Helvetica" font-size="17.5" lengthAdjust="spacing" textLength="121.8506" x="16.25" y="87.865">nom convivial</text><text fill="#000000" font-family="Helvetica" font-size="17.5" lengthAdjust="spacing" textLength="82.5354" x="16.25" y="108.2361">protocole</text><text fill="#000000" font-family="Helvetica" font-size="17.5" lengthAdjust="spacing" textLength="116.6895" x="16.25" y="128.6072">commentaire</text><text fill="#000000" font-family="Helvetica" font-size="17.5" lengthAdjust="spacing" textLength="144.2896" x="16.25" y="148.9783">date de cr&#233;ation</text><line style="stroke:#181818;stroke-width:1.875;" x1="10" x2="166.7896" y1="158.1055" y2="158.1055"/></g><!--class PointEcoute--><g class="entity" data-qualified-name="PointEcoute" data-source-line="22" id="ent0003"><rect fill="#D5F5E3" height="98.2422" rx="3.125" ry="3.125" style="stroke:#181818;stroke-width:1.875;" width="162.8711" x="274.4625" y="39.3"/><ellipse cx="291.9625" cy="58.05" fill="#ADD1B2" rx="12.5" ry="12.5" style="stroke:#181818;stroke-width:1.25;"/><path d="M294.9508,63.9289 Q294.3453,64.2414 293.6813,64.3977 Q293.0367,64.5539 292.3141,64.5539 Q289.7359,64.5539 288.3688,62.8547 Q287.0211,61.1555 287.0211,57.9328 Q287.0211,54.7102 288.3688,53.0109 Q289.7359,51.3117 292.3141,51.3117 Q293.0367,51.3117 293.7008,51.468 Q294.3648,51.6242 294.9508,51.9172 L294.9508,54.7297 Q294.3063,54.1242 293.6813,53.8508 Q293.0758,53.5773 292.4313,53.5773 Q291.0445,53.5773 290.3414,54.6711 Q289.6383,55.7648 289.6383,57.9328 Q289.6383,60.0813 290.3414,61.1945 Q291.0445,62.2883 292.4313,62.2883 Q293.0758,62.2883 293.6813,62.0148 Q294.3063,61.7219 294.9508,61.1359 L294.9508,63.9289 Z " fill="#000000"/><text fill="#000000" font-family="Helvetica" font-size="17.5" lengthAdjust="spacing" textLength="125.3711" x="308.2125" y="64.1083">Point d'&#233;coute</text><line style="stroke:#181818;stroke-width:1.875;" x1="275.7125" x2="436.0836" y1="76.8" y2="76.8"/><text fill="#000000" font-family="Helvetica" font-size="17.5" lengthAdjust="spacing" textLength="42.2034" x="281.9625" y="98.0439">code</text><text fill="#000000" font-family="Helvetica" font-size="17.5" lengthAdjust="spacing" textLength="81.6638" x="281.9625" y="118.415">descriptif</text><line style="stroke:#181818;stroke-width:1.875;" x1="275.7125" x2="436.0836" y1="127.5422" y2="127.5422"/></g><!--class Passage--><g class="entity" data-qualified-name="Passage" data-source-line="26" id="ent0004"><rect fill="#D5F5E3" height="159.3555" rx="3.125" ry="3.125" style="stroke:#181818;stroke-width:1.875;" width="211.4392" x="581.425" y="8.75"/><ellipse cx="646.0893" cy="27.5" fill="#ADD1B2" rx="12.5" ry="12.5" style="stroke:#181818;stroke-width:1.25;"/><path d="M649.0776,33.3789 Q648.4721,33.6914 647.8081,33.8477 Q647.1635,34.0039 646.4409,34.0039 Q643.8627,34.0039 642.4956,32.3047 Q641.1479,30.6055 641.1479,27.3828 Q641.1479,24.1602 642.4956,22.4609 Q643.8627,20.7617 646.4409,20.7617 Q647.1635,20.7617 647.8276,20.918 Q648.4917,21.0742 649.0776,21.3672 L649.0776,24.1797 Q648.4331,23.5742 647.8081,23.3008 Q647.2026,23.0273 646.5581,23.0273 Q645.1713,23.0273 644.4682,24.1211 Q643.7651,25.2148 643.7651,27.3828 Q643.7651,29.5313 644.4682,30.6445 Q645.1713,31.7383 646.5581,31.7383 Q647.2026,31.7383 647.8081,31.4648 Q648.4331,31.1719 649.0776,30.5859 L649.0776,33.3789 Z " fill="#000000"/><text fill="#000000" font-family="Helvetica" font-size="17.5" lengthAdjust="spacing" textLength="72.1106" x="669.8393" y="33.5583">Passage</text><line style="stroke:#181818;stroke-width:1.875;" x1="582.675" x2="791.6142" y1="46.25" y2="46.25"/><text fill="#000000" font-family="Helvetica" font-size="17.5" lengthAdjust="spacing" textLength="125.5078" x="588.925" y="67.4939">n&#176; de passage</text><text fill="#000000" font-family="Helvetica" font-size="17.5" lengthAdjust="spacing" textLength="54.4397" x="588.925" y="87.865">ann&#233;e</text><text fill="#000000" font-family="Helvetica" font-size="17.5" lengthAdjust="spacing" textLength="196.4392" x="588.925" y="108.2361">date d'enregistrement</text><text fill="#000000" font-family="Helvetica" font-size="17.5" lengthAdjust="spacing" textLength="135.4712" x="588.925" y="128.6072">statut workflow</text><text fill="#000000" font-family="Helvetica" font-size="17.5" lengthAdjust="spacing" textLength="191.842" x="588.925" y="148.9783">verdict de v&#233;rification</text><line style="stroke:#181818;stroke-width:1.875;" x1="582.675" x2="791.6142" y1="158.1055" y2="158.1055"/></g><!--class Observation--><g class="entity" data-qualified-name="Observation" data-source-line="33" id="ent0005"><rect fill="#D5F5E3" height="138.9844" rx="3.125" ry="3.125" style="stroke:#181818;stroke-width:1.875;" width="185.4968" x="594.4" y="261.85"/><ellipse cx="630.5449" cy="280.6" fill="#ADD1B2" rx="12.5" ry="12.5" style="stroke:#181818;stroke-width:1.25;"/><path d="M633.5332,286.4789 Q632.9277,286.7914 632.2636,286.9477 Q631.6191,287.1039 630.8965,287.1039 Q628.3183,287.1039 626.9511,285.4047 Q625.6035,283.7055 625.6035,280.4828 Q625.6035,277.2602 626.9511,275.5609 Q628.3183,273.8617 630.8965,273.8617 Q631.6191,273.8617 632.2832,274.018 Q632.9472,274.1742 633.5332,274.4672 L633.5332,277.2797 Q632.8886,276.6742 632.2636,276.4008 Q631.6582,276.1273 631.0136,276.1273 Q629.6269,276.1273 628.9238,277.2211 Q628.2207,278.3148 628.2207,280.4828 Q628.2207,282.6313 628.9238,283.7445 Q629.6269,284.8383 631.0136,284.8383 Q631.6582,284.8383 632.2636,284.5648 Q632.8886,284.2719 633.5332,283.6859 L633.5332,286.4789 Z " fill="#000000"/><text fill="#000000" font-family="Helvetica" font-size="17.5" lengthAdjust="spacing" textLength="106.5637" x="650.9382" y="286.6583">Observation</text><line style="stroke:#181818;stroke-width:1.875;" x1="595.65" x2="778.6468" y1="299.35" y2="299.35"/><text fill="#000000" font-family="Helvetica" font-size="17.5" lengthAdjust="spacing" textLength="111.4001" x="601.9" y="320.5939">temps d&#233;but</text><text fill="#000000" font-family="Helvetica" font-size="17.5" lengthAdjust="spacing" textLength="82.5781" x="601.9" y="340.965">temps fin</text><text fill="#000000" font-family="Helvetica" font-size="17.5" lengthAdjust="spacing" textLength="170.4968" x="601.9" y="361.3361">fr&#233;quence m&#233;diane</text><text fill="#000000" font-family="Helvetica" font-size="17.5" lengthAdjust="spacing" textLength="94.165" x="601.9" y="381.7072">probabilit&#233;</text><line style="stroke:#181818;stroke-width:1.875;" x1="595.65" x2="778.6468" y1="390.8344" y2="390.8344"/></g><!--class Taxon--><g class="entity" data-qualified-name="Taxon" data-source-line="39" id="ent0006"><rect fill="#D5F5E3" height="118.6133" rx="3.125" ry="3.125" style="stroke:#181818;stroke-width:1.875;" width="168.6633" x="264.0625" y="272.0375"/><ellipse cx="316.6101" cy="290.7875" fill="#ADD1B2" rx="12.5" ry="12.5" style="stroke:#181818;stroke-width:1.25;"/><path d="M319.5984,296.6664 Q318.9929,296.9789 318.3289,297.1352 Q317.6843,297.2914 316.9617,297.2914 Q314.3835,297.2914 313.0164,295.5922 Q311.6687,293.893 311.6687,290.6703 Q311.6687,287.4477 313.0164,285.7484 Q314.3835,284.0492 316.9617,284.0492 Q317.6843,284.0492 318.3484,284.2055 Q319.0125,284.3617 319.5984,284.6547 L319.5984,287.4672 Q318.9539,286.8617 318.3289,286.5883 Q317.7234,286.3148 317.0789,286.3148 Q315.6921,286.3148 314.989,287.4086 Q314.2859,288.5023 314.2859,290.6703 Q314.2859,292.8188 314.989,293.932 Q315.6921,295.0258 317.0789,295.0258 Q317.7234,295.0258 318.3289,294.7523 Q318.9539,294.4594 319.5984,293.8734 L319.5984,296.6664 Z " fill="#000000"/><text fill="#000000" font-family="Helvetica" font-size="17.5" lengthAdjust="spacing" textLength="53.5681" x="340.3601" y="296.8458">Taxon</text><line style="stroke:#181818;stroke-width:1.875;" x1="265.3125" x2="431.4758" y1="309.5375" y2="309.5375"/><text fill="#000000" font-family="Helvetica" font-size="17.5" lengthAdjust="spacing" textLength="42.2034" x="271.5625" y="330.7814">code</text><text fill="#000000" font-family="Helvetica" font-size="17.5" lengthAdjust="spacing" textLength="82.8088" x="271.5625" y="351.1525">nom latin</text><text fill="#000000" font-family="Helvetica" font-size="17.5" lengthAdjust="spacing" textLength="153.6633" x="271.5625" y="371.5236">nom vernaculaire</text><line style="stroke:#181818;stroke-width:1.875;" x1="265.3125" x2="431.4758" y1="380.6508" y2="380.6508"/></g><!--link Site to PointEcoute--><g class="link" data-entity-1="ent0002" data-entity-2="ent0003" data-link-type="dependency" data-source-line="45" id="lnk7"><path codeLine="45" d="M168.65,88.425 C201.9,88.425 232.9125,88.425 266.3375,88.425" fill="none" id="Site-to-PointEcoute" style="stroke:#34495E;stroke-width:1.25;"/><polygon fill="#34495E" points="273.8375,88.425,262.5875,83.425,267.5875,88.425,262.5875,93.425,273.8375,88.425" style="stroke:#34495E;stroke-width:1.25;"/><text fill="#34495E" font-family="Helvetica" font-size="15" lengthAdjust="spacing" textLength="61.5967" x="190.625" y="81.0983">contient</text><text fill="#34495E" font-family="Helvetica" font-size="15" lengthAdjust="spacing" textLength="9.5435" x="177.9498" y="85.2756">1</text><text fill="#34495E" font-family="Helvetica" font-size="15" lengthAdjust="spacing" textLength="26.5796" x="237.7885" y="103.2491">0..*</text></g><!--link PointEcoute to Passage--><g class="link" data-entity-1="ent0003" data-entity-2="ent0004" data-link-type="dependency" data-source-line="46" id="lnk8"><path codeLine="46" d="M437.775,88.425 C481.075,88.425 527.2375,88.425 573.675,88.425" fill="none" id="PointEcoute-to-Passage" style="stroke:#34495E;stroke-width:1.25;"/><polygon fill="#34495E" points="581.175,88.425,569.925,83.425,574.925,88.425,569.925,93.425,581.175,88.425" style="stroke:#34495E;stroke-width:1.25;"/><text fill="#34495E" font-family="Helvetica" font-size="15" lengthAdjust="spacing" textLength="99.0747" x="460" y="81.0983">fait l'objet de</text><text fill="#34495E" font-family="Helvetica" font-size="15" lengthAdjust="spacing" textLength="9.5435" x="447.2522" y="85.2763">1</text><text fill="#34495E" font-family="Helvetica" font-size="15" lengthAdjust="spacing" textLength="26.5796" x="544.7045" y="103.0984">0..*</text></g><!--link Passage to Observation--><g class="link" data-entity-1="ent0004" data-entity-2="ent0005" data-link-type="dependency" data-source-line="47" id="lnk9"><path codeLine="47" d="M687.15,168.4 C687.15,198.3875 687.15,224.8125 687.15,253.8" fill="none" id="Passage-to-Observation" style="stroke:#34495E;stroke-width:1.25;"/><polygon fill="#34495E" points="687.15,261.3,692.15,250.05,687.15,255.05,682.15,250.05,687.15,261.3" style="stroke:#34495E;stroke-width:1.25;"/><text fill="#34495E" font-family="Helvetica" font-size="15" lengthAdjust="spacing" textLength="52.8589" x="688.4" y="220.7733">agr&#232;ge</text><text fill="#34495E" font-family="Helvetica" font-size="15" lengthAdjust="spacing" textLength="9.5435" x="677.9655" y="192.0252">1</text><text fill="#34495E" font-family="Helvetica" font-size="15" lengthAdjust="spacing" textLength="26.5796" x="659.1587" y="248.551">0..*</text></g><!--reverse link Taxon to Observation--><g class="link" data-entity-1="ent0006" data-entity-2="ent0005" data-link-type="dependency" data-source-line="48" id="lnk11"><path codeLine="48" d="M440.5,331.35 C489.5,331.35 543.7375,331.35 594.0875,331.35" fill="none" id="Taxon-backto-Observation" style="stroke:#34495E;stroke-width:1.25;"/><polygon fill="#34495E" points="433,331.35,444.25,336.35,439.25,331.35,444.25,326.35,433,331.35" style="stroke:#34495E;stroke-width:1.25;"/><text fill="#34495E" font-family="Helvetica" font-size="15" lengthAdjust="spacing" textLength="116.3379" x="455.4375" y="324.0233">class&#233;e comme</text><text fill="#34495E" font-family="Helvetica" font-size="15" lengthAdjust="spacing" textLength="28.623" x="442.7372" y="346.1333">0..1</text><text fill="#34495E" font-family="Helvetica" font-size="15" lengthAdjust="spacing" textLength="26.5796" x="557.7324" y="346.1062">0..*</text></g><?plantuml-src XLF1RXD13BtlLrZXa1QHqBJDWHoGIji0Ga2bLDoTMU_6P7PcySnk4QZ_Gsvy0_anl9EaJKibBgFn6zlFVlRquUFv1HJUeEL0C05B0SP0BdBKMnHiaQqblUVeWZx3zTKO3e9lme1Se6gkqEpiyd2OzM6AnZkO2rEXgJ16uNaJ0rGKcGG2DJQyW1er6O7Hm5guGXPwIShaIXBIB0TT3TCF4BoBK7k97NkDach34BnXZEnTE1p2xCjRQ1b1oEKaWvon5Ap2C2o6MLYoqp2i82mmzpViIYZG1jfxoMk6qV7HFa85DZPEbNp6FmX6fqy_ViAAu1tPLdipkETZhDPujksTtgiYAS_HOvStQ9Qb-CRbvzvwWMSNu-duykGVDo_QsVM2pT9H230QZlTSpaJypJR-vFJqrPWUFtQr_jTXq-bnbYLAwCrq-jsCGiCjzrHqICZF3C3z-Gq6HTQhpl1QfNUjUg5LknOVlV6Mz6vyLUaUTUDLAyTDHgE1QNhPxOxiohCEEk-lLyQhOeakOPV9Jgp6voaB1IDSHoxkmg_qmFA-DkMeDv02wDnwTK_V9oTKSeX2NMcAXuYnYN3ZPLbOVwD8IvApYLsUThqIBdIw3-hzF0yaRS8IQQIgreLUhtJSTsR1Jk-5Dlkj8MS8glLAbzFHHgGvpjboL0rtMQ_n-pRVjjLEMgiiRdlNkXoQnYOzRxCi3QGtwi50k5p4mMle7Gs7ptiFf9jqqz6_fxtkmq-6RNMSw1_X2BRlvr-fao7RlQGe_KVkFcXV2_tmfQn_gUxxwDPnOAdOaMcQJRUJpORhX3RByXS0?></g></svg>