<?plantuml 1.2026.1?><svg xmlns="http://www.w3.org/2000/svg" xmlns:xlink="http://www.w3.org/1999/xlink" contentStyleType="text/css" data-diagram-type="CLASS" height="909.7917px" preserveAspectRatio="none" style="width:1172px;height:909px;background:#FFFFFF;" version="1.1" viewBox="0 0 1172 909" width="1172.1875px" zoomAndPan="magnify"><defs/><g><!--class Utilisateur--><g class="entity" data-qualified-name="Utilisateur" data-source-line="17" id="ent0002"><rect fill="#EAECEE" height="34.375" rx="2.8646" ry="2.8646" style="stroke:#181818;stroke-width:1.375;" width="110.9925" x="737.1833" y="8.0208"/><ellipse cx="753.225" cy="25.2083" fill="#ADD1B2" rx="11.4583" ry="11.4583" style="stroke:#181818;stroke-width:1.1458;"/><path d="M755.3555,30.0602 Q754.8542,30.3109 754.2813,30.4362 Q753.7263,30.5794 753.1176,30.5794 Q750.9154,30.5794 749.7517,29.1292 Q748.6059,27.679 748.6059,24.9398 Q748.6059,22.2005 749.7517,20.7503 Q750.9154,19.3001 753.1176,19.3001 Q753.7263,19.3001 754.2992,19.4434 Q754.8721,19.5687 755.3555,19.8372 L755.3555,22.2184 Q754.8005,21.7171 754.2813,21.4844 Q753.7621,21.2337 753.2071,21.2337 Q752.0434,21.2337 751.4346,22.1826 Q750.8259,23.1136 750.8259,24.9398 Q750.8259,26.7839 751.4346,27.7148 Q752.0434,28.6458 753.2071,28.6458 Q753.7621,28.6458 754.2813,28.4131 Q754.8005,28.1803 755.3555,27.6611 L755.3555,30.0602 Z " fill="#000000"/><text fill="#000000" font-family="Helvetica" font-size="14.8958" lengthAdjust="spacing" textLength="76.6175" x="768.1208" y="30.3651">Utilisateur</text></g><!--class SiteDeSuivi--><g class="entity" data-qualified-name="SiteDeSuivi" data-source-line="21" id="ent0003"><rect fill="#A9DFBF" height="34.375" rx="2.8646" ry="2.8646" style="stroke:#181818;stroke-width:1.375;" width="125.3574" x="730.0104" y="128.3333"/><ellipse cx="746.0521" cy="145.5208" fill="#ADD1B2" rx="11.4583" ry="11.4583" style="stroke:#181818;stroke-width:1.1458;"/><path d="M748.1826,150.3727 Q747.6813,150.6234 747.1084,150.7487 Q746.5534,150.8919 745.9447,150.8919 Q743.7425,150.8919 742.5788,149.4417 Q741.4329,147.9915 741.4329,145.2523 Q741.4329,142.513 742.5788,141.0628 Q743.7425,139.6126 745.9447,139.6126 Q746.5534,139.6126 747.1263,139.7559 Q747.6992,139.8812 748.1826,140.1497 L748.1826,142.5309 Q747.6276,142.0296 747.1084,141.7969 Q746.5892,141.5462 746.0342,141.5462 Q744.8704,141.5462 744.2617,142.4951 Q743.653,143.4261 743.653,145.2523 Q743.653,147.0964 744.2617,148.0273 Q744.8704,148.9583 746.0342,148.9583 Q746.5892,148.9583 747.1084,148.7256 Q747.6276,148.4928 748.1826,147.9736 L748.1826,150.3727 Z " fill="#000000"/><text fill="#000000" font-family="Helvetica" font-size="14.8958" lengthAdjust="spacing" textLength="90.9824" x="760.9479" y="150.6776">Site de suivi</text></g><!--class PointDEcoute--><g class="entity" data-qualified-name="PointDEcoute" data-source-line="26" id="ent0004"><rect fill="#A9DFBF" height="34.375" rx="2.8646" ry="2.8646" style="stroke:#181818;stroke-width:1.375;" width="141.0897" x="722.1385" y="248.6458"/><ellipse cx="738.1802" cy="265.8333" fill="#ADD1B2" rx="11.4583" ry="11.4583" style="stroke:#181818;stroke-width:1.1458;"/><path d="M740.3107,270.6852 Q739.8094,270.9359 739.2365,271.0612 Q738.6815,271.2044 738.0728,271.2044 Q735.8706,271.2044 734.7069,269.7542 Q733.5611,268.304 733.5611,265.5648 Q733.5611,262.8255 734.7069,261.3753 Q735.8706,259.9251 738.0728,259.9251 Q738.6815,259.9251 739.2544,260.0684 Q739.8273,260.1937 740.3107,260.4622 L740.3107,262.8434 Q739.7557,262.3421 739.2365,262.1094 Q738.7173,261.8587 738.1623,261.8587 Q736.9986,261.8587 736.3898,262.8076 Q735.7811,263.7386 735.7811,265.5648 Q735.7811,267.4089 736.3898,268.3398 Q736.9986,269.2708 738.1623,269.2708 Q738.7173,269.2708 739.2365,269.0381 Q739.7557,268.8053 740.3107,268.2861 L740.3107,270.6852 Z " fill="#000000"/><text fill="#000000" font-family="Helvetica" font-size="14.8958" lengthAdjust="spacing" textLength="106.7147" x="753.076" y="270.9901">Point d'&#233;coute</text></g><!--class Enregistreur--><g class="entity" data-qualified-name="Enregistreur" data-source-line="31" id="ent0005"><rect fill="#EAECEE" height="34.375" rx="2.8646" ry="2.8646" style="stroke:#181818;stroke-width:1.375;" width="126.5648" x="940.2365" y="248.6458"/><ellipse cx="956.2781" cy="265.8333" fill="#ADD1B2" rx="11.4583" ry="11.4583" style="stroke:#181818;stroke-width:1.1458;"/><path d="M958.4087,270.6852 Q957.9074,270.9359 957.3344,271.0612 Q956.7794,271.2044 956.1707,271.2044 Q953.9686,271.2044 952.8048,269.7542 Q951.659,268.304 951.659,265.5648 Q951.659,262.8255 952.8048,261.3753 Q953.9686,259.9251 956.1707,259.9251 Q956.7794,259.9251 957.3523,260.0684 Q957.9253,260.1937 958.4087,260.4622 L958.4087,262.8434 Q957.8536,262.3421 957.3344,262.1094 Q956.8152,261.8587 956.2602,261.8587 Q955.0965,261.8587 954.4878,262.8076 Q953.879,263.7386 953.879,265.5648 Q953.879,267.4089 954.4878,268.3398 Q955.0965,269.2708 956.2602,269.2708 Q956.8152,269.2708 957.3344,269.0381 Q957.8536,268.8053 958.4087,268.2861 L958.4087,270.6852 Z " fill="#000000"/><text fill="#000000" font-family="Helvetica" font-size="14.8958" lengthAdjust="spacing" textLength="92.1898" x="971.174" y="270.9901">Enregistreur</text></g><!--class Micro--><g class="entity" data-qualified-name="Micro" data-source-line="35" id="ent0006"><rect fill="#EAECEE" height="34.375" rx="2.8646" ry="2.8646" style="stroke:#181818;stroke-width:1.375;" width="74.793" x="1003.9333" y="368.9583"/><ellipse cx="1019.975" cy="386.1458" fill="#ADD1B2" rx="11.4583" ry="11.4583" style="stroke:#181818;stroke-width:1.1458;"/><path d="M1022.1055,390.9977 Q1021.6042,391.2484 1021.0313,391.3737 Q1020.4763,391.5169 1019.8676,391.5169 Q1017.6654,391.5169 1016.5017,390.0667 Q1015.3559,388.6165 1015.3559,385.8773 Q1015.3559,383.138 1016.5017,381.6878 Q1017.6654,380.2376 1019.8676,380.2376 Q1020.4763,380.2376 1021.0492,380.3809 Q1021.6221,380.5062 1022.1055,380.7747 L1022.1055,383.1559 Q1021.5505,382.6546 1021.0313,382.4219 Q1020.5121,382.1712 1019.9571,382.1712 Q1018.7934,382.1712 1018.1846,383.1201 Q1017.5759,384.0511 1017.5759,385.8773 Q1017.5759,387.7214 1018.1846,388.6523 Q1018.7934,389.5833 1019.9571,389.5833 Q1020.5121,389.5833 1021.0313,389.3506 Q1021.5505,389.1178 1022.1055,388.5986 L1022.1055,390.9977 Z " fill="#000000"/><text fill="#000000" font-family="Helvetica" font-size="14.8958" lengthAdjust="spacing" textLength="40.418" x="1034.8708" y="391.3026">Micro</text></g><!--class Passage--><g class="entity" data-qualified-name="Passage" data-source-line="41" id="ent0007"><rect fill="#A9DFBF" height="34.375" rx="2.8646" ry="2.8646" style="stroke:#181818;stroke-width:1.375;" width="95.7549" x="806.6781" y="368.9583"/><ellipse cx="822.7198" cy="386.1458" fill="#ADD1B2" rx="11.4583" ry="11.4583" style="stroke:#181818;stroke-width:1.1458;"/><path d="M824.8503,390.9977 Q824.349,391.2484 823.7761,391.3737 Q823.2211,391.5169 822.6124,391.5169 Q820.4102,391.5169 819.2465,390.0667 Q818.1007,388.6165 818.1007,385.8773 Q818.1007,383.138 819.2465,381.6878 Q820.4102,380.2376 822.6124,380.2376 Q823.2211,380.2376 823.794,380.3809 Q824.3669,380.5062 824.8503,380.7747 L824.8503,383.1559 Q824.2953,382.6546 823.7761,382.4219 Q823.2569,382.1712 822.7019,382.1712 Q821.5382,382.1712 820.9294,383.1201 Q820.3207,384.0511 820.3207,385.8773 Q820.3207,387.7214 820.9294,388.6523 Q821.5382,389.5833 822.7019,389.5833 Q823.2569,389.5833 823.7761,389.3506 Q824.2953,389.1178 824.8503,388.5986 L824.8503,390.9977 Z " fill="#000000"/><text fill="#000000" font-family="Helvetica" font-size="14.8958" lengthAdjust="spacing" textLength="61.3799" x="837.6156" y="391.3026">Passage</text></g><!--class SessionDEnregistrement--><g class="entity" data-qualified-name="SessionDEnregistrement" data-source-line="49" id="ent0008"><rect fill="#EAECEE" height="34.375" rx="2.8646" ry="2.8646" style="stroke:#181818;stroke-width:1.375;" width="224.8278" x="370.8948" y="489.2708"/><ellipse cx="386.9365" cy="506.4583" fill="#ADD1B2" rx="11.4583" ry="11.4583" style="stroke:#181818;stroke-width:1.1458;"/><path d="M389.067,511.3102 Q388.5657,511.5609 387.9928,511.6862 Q387.4378,511.8294 386.829,511.8294 Q384.6269,511.8294 383.4632,510.3792 Q382.3173,508.929 382.3173,506.1898 Q382.3173,503.4505 383.4632,502.0003 Q384.6269,500.5501 386.829,500.5501 Q387.4378,500.5501 388.0107,500.6934 Q388.5836,500.8187 389.067,501.0872 L389.067,503.4684 Q388.512,502.9671 387.9928,502.7344 Q387.4736,502.4837 386.9186,502.4837 Q385.7548,502.4837 385.1461,503.4326 Q384.5374,504.3636 384.5374,506.1898 Q384.5374,508.0339 385.1461,508.9648 Q385.7548,509.8958 386.9186,509.8958 Q387.4736,509.8958 387.9928,509.6631 Q388.512,509.4303 389.067,508.9111 L389.067,511.3102 Z " fill="#000000"/><text fill="#000000" font-family="Helvetica" font-size="14.8958" lengthAdjust="spacing" textLength="190.4528" x="401.8323" y="511.6151">Session d'enregistrement</text></g><!--class EnregistrementOriginal--><g class="entity" data-qualified-name="EnregistrementOriginal" data-source-line="53" id="ent0009"><rect fill="#EAECEE" height="34.375" rx="2.8646" ry="2.8646" style="stroke:#181818;stroke-width:1.375;" width="210.3684" x="8.0208" y="626.7708"/><ellipse cx="24.0625" cy="643.9583" fill="#ADD1B2" rx="11.4583" ry="11.4583" style="stroke:#181818;stroke-width:1.1458;"/><path d="M26.193,648.8102 Q25.6917,649.0609 25.1188,649.1862 Q24.5638,649.3294 23.9551,649.3294 Q21.7529,649.3294 20.5892,647.8792 Q19.4434,646.429 19.4434,643.6898 Q19.4434,640.9505 20.5892,639.5003 Q21.7529,638.0501 23.9551,638.0501 Q24.5638,638.0501 25.1367,638.1934 Q25.7096,638.3187 26.193,638.5872 L26.193,640.9684 Q25.638,640.4671 25.1188,640.2344 Q24.5996,639.9837 24.0446,639.9837 Q22.8809,639.9837 22.2721,640.9326 Q21.6634,641.8636 21.6634,643.6898 Q21.6634,645.5339 22.2721,646.4648 Q22.8809,647.3958 24.0446,647.3958 Q24.5996,647.3958 25.1188,647.1631 Q25.638,646.9303 26.193,646.4111 L26.193,648.8102 Z " fill="#000000"/><text fill="#000000" font-family="Helvetica" font-size="14.8958" lengthAdjust="spacing" textLength="175.9934" x="38.9583" y="649.1151">Enregistrement original</text></g><!--class SequenceDEcoute--><g class="entity" data-qualified-name="SequenceDEcoute" data-source-line="58" id="ent0010"><rect fill="#EAECEE" height="34.375" rx="2.8646" ry="2.8646" style="stroke:#181818;stroke-width:1.375;" width="177.0492" x="489.8896" y="747.0833"/><ellipse cx="505.9313" cy="764.2708" fill="#ADD1B2" rx="11.4583" ry="11.4583" style="stroke:#181818;stroke-width:1.1458;"/><path d="M508.0618,769.1227 Q507.5605,769.3734 506.9876,769.4987 Q506.4326,769.6419 505.8238,769.6419 Q503.6217,769.6419 502.4579,768.1917 Q501.3121,766.7415 501.3121,764.0023 Q501.3121,761.263 502.4579,759.8128 Q503.6217,758.3626 505.8238,758.3626 Q506.4326,758.3626 507.0055,758.5059 Q507.5784,758.6312 508.0618,758.8997 L508.0618,761.2809 Q507.5068,760.7796 506.9876,760.5469 Q506.4684,760.2962 505.9133,760.2962 Q504.7496,760.2962 504.1409,761.2451 Q503.5322,762.1761 503.5322,764.0023 Q503.5322,765.8464 504.1409,766.7773 Q504.7496,767.7083 505.9133,767.7083 Q506.4684,767.7083 506.9876,767.4756 Q507.5068,767.2428 508.0618,766.7236 L508.0618,769.1227 Z " fill="#000000"/><text fill="#000000" font-family="Helvetica" font-size="14.8958" lengthAdjust="spacing" textLength="142.6742" x="520.8271" y="769.4276">S&#233;quence d'&#233;coute</text></g><!--class JournalDuCapteur--><g class="entity" data-qualified-name="JournalDuCapteur" data-source-line="63" id="ent0011"><rect fill="#EAECEE" height="34.375" rx="2.8646" ry="2.8646" style="stroke:#181818;stroke-width:1.375;" width="171.8633" x="397.375" y="626.7708"/><ellipse cx="413.4167" cy="643.9583" fill="#ADD1B2" rx="11.4583" ry="11.4583" style="stroke:#181818;stroke-width:1.1458;"/><path d="M415.5472,648.8102 Q415.0459,649.0609 414.473,649.1862 Q413.918,649.3294 413.3092,649.3294 Q411.1071,649.3294 409.9434,647.8792 Q408.7975,646.429 408.7975,643.6898 Q408.7975,640.9505 409.9434,639.5003 Q411.1071,638.0501 413.3092,638.0501 Q413.918,638.0501 414.4909,638.1934 Q415.0638,638.3187 415.5472,638.5872 L415.5472,640.9684 Q414.9922,640.4671 414.473,640.2344 Q413.9538,639.9837 413.3988,639.9837 Q412.235,639.9837 411.6263,640.9326 Q411.0176,641.8636 411.0176,643.6898 Q411.0176,645.5339 411.6263,646.4648 Q412.235,647.3958 413.3988,647.3958 Q413.9538,647.3958 414.473,647.1631 Q414.9922,646.9303 415.5472,646.4111 L415.5472,648.8102 Z " fill="#000000"/><text fill="#000000" font-family="Helvetica" font-size="14.8958" lengthAdjust="spacing" textLength="137.4883" x="428.3125" y="649.1151">Journal du capteur</text></g><!--class ReleveClimatique--><g class="entity" data-qualified-name="ReleveClimatique" data-source-line="68" id="ent0012"><rect fill="#EAECEE" height="34.375" rx="2.8646" ry="2.8646" style="stroke:#181818;stroke-width:1.375;" width="168.052" x="608.976" y="626.7708"/><ellipse cx="625.0177" cy="643.9583" fill="#ADD1B2" rx="11.4583" ry="11.4583" style="stroke:#181818;stroke-width:1.1458;"/><path d="M627.1482,648.8102 Q626.6469,649.0609 626.074,649.1862 Q625.519,649.3294 624.9103,649.3294 Q622.7081,649.3294 621.5444,647.8792 Q620.3986,646.429 620.3986,643.6898 Q620.3986,640.9505 621.5444,639.5003 Q622.7081,638.0501 624.9103,638.0501 Q625.519,638.0501 626.0919,638.1934 Q626.6648,638.3187 627.1482,638.5872 L627.1482,640.9684 Q626.5932,640.4671 626.074,640.2344 Q625.5548,639.9837 624.9998,639.9837 Q623.8361,639.9837 623.2273,640.9326 Q622.6186,641.8636 622.6186,643.6898 Q622.6186,645.5339 623.2273,646.4648 Q623.8361,647.3958 624.9998,647.3958 Q625.5548,647.3958 626.074,647.1631 Q626.5932,646.9303 627.1482,646.4111 L627.1482,648.8102 Z " fill="#000000"/><text fill="#000000" font-family="Helvetica" font-size="14.8958" lengthAdjust="spacing" textLength="133.677" x="639.9135" y="649.1151">Relev&#233; climatique</text></g><!--class SelectionDEcoute--><g class="entity" data-qualified-name="SelectionDEcoute" data-source-line="72" id="ent0013"><rect fill="#EAECEE" height="34.375" rx="2.8646" ry="2.8646" style="stroke:#181818;stroke-width:1.375;" width="172.2196" x="769.599" y="558.0208"/><ellipse cx="785.6406" cy="575.2083" fill="#ADD1B2" rx="11.4583" ry="11.4583" style="stroke:#181818;stroke-width:1.1458;"/><path d="M787.7712,580.0602 Q787.2699,580.3109 786.6969,580.4362 Q786.1419,580.5794 785.5332,580.5794 Q783.3311,580.5794 782.1673,579.1292 Q781.0215,577.679 781.0215,574.9398 Q781.0215,572.2005 782.1673,570.7503 Q783.3311,569.3001 785.5332,569.3001 Q786.1419,569.3001 786.7148,569.4434 Q787.2878,569.5687 787.7712,569.8372 L787.7712,572.2184 Q787.2161,571.7171 786.6969,571.4844 Q786.1777,571.2337 785.6227,571.2337 Q784.459,571.2337 783.8503,572.1826 Q783.2415,573.1136 783.2415,574.9398 Q783.2415,576.7839 783.8503,577.7148 Q784.459,578.6458 785.6227,578.6458 Q786.1777,578.6458 786.6969,578.4131 Q787.2161,578.1803 787.7712,577.6611 L787.7712,580.0602 Z " fill="#000000"/><text fill="#000000" font-family="Helvetica" font-size="14.8958" lengthAdjust="spacing" textLength="137.8446" x="800.5365" y="580.3651">S&#233;lection d'&#233;coute</text></g><!--class ResultatsIdentification--><g class="entity" data-qualified-name="ResultatsIdentification" data-source-line="76" id="ent0014"><rect fill="#EAECEE" height="34.375" rx="2.8646" ry="2.8646" style="stroke:#181818;stroke-width:1.375;" width="219.4965" x="915.5437" y="489.2708"/><ellipse cx="931.5854" cy="506.4583" fill="#ADD1B2" rx="11.4583" ry="11.4583" style="stroke:#181818;stroke-width:1.1458;"/><path d="M933.716,511.3102 Q933.2146,511.5609 932.6417,511.6862 Q932.0867,511.8294 931.478,511.8294 Q929.2758,511.8294 928.1121,510.3792 Q926.9663,508.929 926.9663,506.1898 Q926.9663,503.4505 928.1121,502.0003 Q929.2758,500.5501 931.478,500.5501 Q932.0867,500.5501 932.6596,500.6934 Q933.2326,500.8187 933.716,501.0872 L933.716,503.4684 Q933.1609,502.9671 932.6417,502.7344 Q932.1225,502.4837 931.5675,502.4837 Q930.4038,502.4837 929.7951,503.4326 Q929.1863,504.3636 929.1863,506.1898 Q929.1863,508.0339 929.7951,508.9648 Q930.4038,509.8958 931.5675,509.8958 Q932.1225,509.8958 932.6417,509.6631 Q933.1609,509.4303 933.716,508.9111 L933.716,511.3102 Z " fill="#000000"/><text fill="#000000" font-family="Helvetica" font-size="14.8958" lengthAdjust="spacing" textLength="185.1215" x="946.4812" y="511.6151">R&#233;sultats d'identification</text></g><!--class Observation--><g class="entity" data-qualified-name="Observation" data-source-line="81" id="ent0015"><rect fill="#A9DFBF" height="34.375" rx="2.8646" ry="2.8646" style="stroke:#181818;stroke-width:1.375;" width="125.081" x="962.7521" y="626.7708"/><ellipse cx="978.7937" cy="643.9583" fill="#ADD1B2" rx="11.4583" ry="11.4583" style="stroke:#181818;stroke-width:1.1458;"/><path d="M980.9243,648.8102 Q980.423,649.0609 979.8501,649.1862 Q979.2951,649.3294 978.6863,649.3294 Q976.4842,649.3294 975.3204,647.8792 Q974.1746,646.429 974.1746,643.6898 Q974.1746,640.9505 975.3204,639.5003 Q976.4842,638.0501 978.6863,638.0501 Q979.2951,638.0501 979.868,638.1934 Q980.4409,638.3187 980.9243,638.5872 L980.9243,640.9684 Q980.3693,640.4671 979.8501,640.2344 Q979.3309,639.9837 978.7758,639.9837 Q977.6121,639.9837 977.0034,640.9326 Q976.3947,641.8636 976.3947,643.6898 Q976.3947,645.5339 977.0034,646.4648 Q977.6121,647.3958 978.7758,647.3958 Q979.3309,647.3958 979.8501,647.1631 Q980.3693,646.9303 980.9243,646.4111 L980.9243,648.8102 Z " fill="#000000"/><text fill="#000000" font-family="Helvetica" font-size="14.8958" lengthAdjust="spacing" textLength="90.706" x="993.6896" y="649.1151">Observation</text></g><!--class Taxon--><g class="entity" data-qualified-name="Taxon" data-source-line="89" id="ent0016"><rect fill="#A9DFBF" height="34.375" rx="2.8646" ry="2.8646" style="stroke:#181818;stroke-width:1.375;" width="79.9717" x="1028.8438" y="747.0833"/><ellipse cx="1044.8854" cy="764.2708" fill="#ADD1B2" rx="11.4583" ry="11.4583" style="stroke:#181818;stroke-width:1.1458;"/><path d="M1047.016,769.1227 Q1046.5146,769.3734 1045.9417,769.4987 Q1045.3867,769.6419 1044.778,769.6419 Q1042.5758,769.6419 1041.4121,768.1917 Q1040.2663,766.7415 1040.2663,764.0023 Q1040.2663,761.263 1041.4121,759.8128 Q1042.5758,758.3626 1044.778,758.3626 Q1045.3867,758.3626 1045.9596,758.5059 Q1046.5326,758.6312 1047.016,758.8997 L1047.016,761.2809 Q1046.4609,760.7796 1045.9417,760.5469 Q1045.4225,760.2962 1044.8675,760.2962 Q1043.7038,760.2962 1043.0951,761.2451 Q1042.4863,762.1761 1042.4863,764.0023 Q1042.4863,765.8464 1043.0951,766.7773 Q1043.7038,767.7083 1044.8675,767.7083 Q1045.4225,767.7083 1045.9417,767.4756 Q1046.4609,767.2428 1047.016,766.7236 L1047.016,769.1227 Z " fill="#000000"/><text fill="#000000" font-family="Helvetica" font-size="14.8958" lengthAdjust="spacing" textLength="45.5967" x="1059.7813" y="769.4276">Taxon</text></g><!--class GroupeTaxonomique--><g class="entity" data-qualified-name="GroupeTaxonomique" data-source-line="94" id="ent0017"><rect fill="#EAECEE" height="34.375" rx="2.8646" ry="2.8646" style="stroke:#181818;stroke-width:1.375;" width="192.1123" x="972.7781" y="867.3958"/><ellipse cx="988.8198" cy="884.5833" fill="#ADD1B2" rx="11.4583" ry="11.4583" style="stroke:#181818;stroke-width:1.1458;"/><path d="M990.9503,889.4352 Q990.449,889.6859 989.8761,889.8112 Q989.3211,889.9544 988.7124,889.9544 Q986.5102,889.9544 985.3465,888.5042 Q984.2007,887.054 984.2007,884.3148 Q984.2007,881.5755 985.3465,880.1253 Q986.5102,878.6751 988.7124,878.6751 Q989.3211,878.6751 989.894,878.8184 Q990.4669,878.9437 990.9503,879.2122 L990.9503,881.5934 Q990.3953,881.0921 989.8761,880.8594 Q989.3569,880.6087 988.8019,880.6087 Q987.6382,880.6087 987.0294,881.5576 Q986.4207,882.4886 986.4207,884.3148 Q986.4207,886.1589 987.0294,887.0898 Q987.6382,888.0208 988.8019,888.0208 Q989.3569,888.0208 989.8761,887.7881 Q990.3953,887.5553 990.9503,887.0361 L990.9503,889.4352 Z " fill="#000000"/><text fill="#000000" font-family="Helvetica" font-size="14.8958" lengthAdjust="spacing" textLength="157.7373" x="1003.7156" y="889.7401">Groupe taxonomique</text></g><!--link Utilisateur to SiteDeSuivi--><g class="link" data-entity-1="ent0002" data-entity-2="ent0003" data-link-type="dependency" data-source-line="99" id="lnk18"><path codeLine="99" d="M792.6875,42.7625 C792.6875,65.3125 792.6875,98.7594 792.6875,121.2292" fill="none" id="Utilisateur-to-SiteDeSuivi" style="stroke:#34495E;stroke-width:1.1458;"/><polygon fill="#34495E" points="792.6875,128.1042,797.2708,117.7917,792.6875,122.375,788.1042,117.7917,792.6875,128.1042" style="stroke:#34495E;stroke-width:1.1458;"/><text fill="#34495E" font-family="Helvetica" font-size="13.75" lengthAdjust="spacing" textLength="57.1149" x="793.8333" y="90.6797">poss&#232;de</text><text fill="#34495E" font-family="Helvetica" font-size="13.75" lengthAdjust="spacing" textLength="8.7482" x="783.4158" y="64.3108">1</text><text fill="#34495E" font-family="Helvetica" font-size="13.75" lengthAdjust="spacing" textLength="24.3646" x="763.7238" y="115.9437">1..*</text></g><!--link SiteDeSuivi to PointDEcoute--><g class="link" data-entity-1="ent0003" data-entity-2="ent0004" data-link-type="dependency" data-source-line="100" id="lnk19"><path codeLine="100" d="M792.6875,163.075 C792.6875,185.625 792.6875,219.0719 792.6875,241.5417" fill="none" id="SiteDeSuivi-to-PointDEcoute" style="stroke:#34495E;stroke-width:1.1458;"/><polygon fill="#34495E" points="792.6875,248.4167,797.2708,238.1042,792.6875,242.6875,788.1042,238.1042,792.6875,248.4167" style="stroke:#34495E;stroke-width:1.1458;"/><text fill="#34495E" font-family="Helvetica" font-size="13.75" lengthAdjust="spacing" textLength="56.4636" x="793.8333" y="210.9922">contient</text><text fill="#34495E" font-family="Helvetica" font-size="13.75" lengthAdjust="spacing" textLength="8.7482" x="783.4125" y="184.6233">1</text><text fill="#34495E" font-family="Helvetica" font-size="13.75" lengthAdjust="spacing" textLength="24.3646" x="763.7261" y="236.2562">1..*</text></g><!--link PointDEcoute to Passage--><g class="link" data-entity-1="ent0004" data-entity-2="ent0007" data-link-type="dependency" data-source-line="101" id="lnk20"><path codeLine="101" d="M787.5427,283.4448 C784.0594,297.7219 781.3667,318.5531 789.25,334.5833 C796.2625,348.849 803.7195,356.4652 816.4268,364.7725" fill="none" id="PointDEcoute-to-Passage" style="stroke:#34495E;stroke-width:1.1458;"/><polygon fill="#34495E" points="822.1812,368.5344,816.0575,359.0552,817.3859,365.3994,811.0416,366.7278,822.1812,368.5344" style="stroke:#34495E;stroke-width:1.1458;"/><text fill="#34495E" font-family="Helvetica" font-size="13.75" lengthAdjust="spacing" textLength="90.8185" x="790.3958" y="331.3047">fait l'objet de</text><text fill="#34495E" font-family="Helvetica" font-size="13.75" lengthAdjust="spacing" textLength="8.7482" x="776.5012" y="305.0128">1</text><text fill="#34495E" font-family="Helvetica" font-size="13.75" lengthAdjust="spacing" textLength="24.3646" x="779.8638" y="356.2936">0..*</text></g><!--link Enregistreur to Passage--><g class="link" data-entity-1="ent0005" data-entity-2="ent0007" data-link-type="dependency" data-source-line="102" id="lnk21"><path codeLine="102" d="M982.8042,283.3875 C954.3417,305.9375 908.8561,341.9909 880.4853,364.4607" fill="none" id="Enregistreur-to-Passage" style="stroke:#34495E;stroke-width:1.1458;"/><polygon fill="#34495E" points="875.0958,368.7292,886.0256,365.9194,879.587,365.1721,880.3343,358.7335,875.0958,368.7292" style="stroke:#34495E;stroke-width:1.1458;"/><text fill="#34495E" font-family="Helvetica" font-size="13.75" lengthAdjust="spacing" textLength="62.2443" x="939.3542" y="331.3047">a produit</text><text fill="#34495E" font-family="Helvetica" font-size="13.75" lengthAdjust="spacing" textLength="8.7482" x="966.4091" y="304.9358">1</text><text fill="#34495E" font-family="Helvetica" font-size="13.75" lengthAdjust="spacing" textLength="24.3646" x="854.6056" y="356.5687">1..*</text></g><!--link Enregistreur to Micro--><g class="link" data-entity-1="ent0005" data-entity-2="ent0006" data-link-type="dependency" data-source-line="103" id="lnk22"><path codeLine="103" d="M1008.7802,283.3875 C1015.999,305.9375 1026.8127,339.7129 1034.02,362.1827" fill="none" id="Enregistreur-to-Micro" style="stroke:#34495E;stroke-width:1.1458;"/><polygon fill="#34495E" points="1036.1198,368.7292,1037.3344,357.5096,1034.3699,363.2738,1028.6057,360.3093,1036.1198,368.7292" style="stroke:#34495E;stroke-width:1.1458;"/><text fill="#34495E" font-family="Helvetica" font-size="13.75" lengthAdjust="spacing" textLength="36.6443" x="1026.4375" y="331.3047">porte</text><text fill="#34495E" font-family="Helvetica" font-size="13.75" lengthAdjust="spacing" textLength="8.7482" x="1001.3144" y="304.9358">1</text><text fill="#34495E" font-family="Helvetica" font-size="13.75" lengthAdjust="spacing" textLength="8.7482" x="1024.4455" y="356.5687">1</text></g><!--link Passage to SessionDEnregistrement--><g class="link" data-entity-1="ent0007" data-entity-2="ent0008" data-link-type="dependency" data-source-line="104" id="lnk23"><path codeLine="104" d="M806.4031,402.6 C736.5646,424.8063 614.1875,463.7104 542.1146,486.6156" fill="none" id="Passage-to-SessionDEnregistrement" style="stroke:#34495E;stroke-width:1.1458;"/><polygon fill="#34495E" points="535.5625,488.6979,546.7788,489.9425,541.0226,486.9627,544.0024,481.2064,535.5625,488.6979" style="stroke:#34495E;stroke-width:1.1458;"/><text fill="#34495E" font-family="Helvetica" font-size="13.75" lengthAdjust="spacing" textLength="49.4476" x="693" y="451.6172">produit</text><text fill="#34495E" font-family="Helvetica" font-size="13.75" lengthAdjust="spacing" textLength="8.7482" x="788.8318" y="402.2301">1</text><text fill="#34495E" font-family="Helvetica" font-size="13.75" lengthAdjust="spacing" textLength="8.7482" x="546.6807" y="476.8579">1</text></g><!--link SessionDEnregistrement to EnregistrementOriginal--><g class="link" data-entity-1="ent0008" data-entity-2="ent0009" data-link-type="dependency" data-source-line="105" id="lnk24"><path codeLine="105" d="M370.6427,514.8688 C319.7792,521.5031 260.1385,534.1188 210.6042,558.0208 C176.0688,574.6813 148.775,601.7688 131.4271,621.3396" fill="none" id="SessionDEnregistrement-to-EnregistrementOriginal" style="stroke:#34495E;stroke-width:1.1458;"/><polygon fill="#34495E" points="126.8667,626.4844,137.1371,621.8075,130.667,622.1971,130.2774,615.727,126.8667,626.4844" style="stroke:#34495E;stroke-width:1.1458;"/><text fill="#34495E" font-family="Helvetica" font-size="13.75" lengthAdjust="spacing" textLength="56.4636" x="211.75" y="580.5235">contient</text><text fill="#34495E" font-family="Helvetica" font-size="13.75" lengthAdjust="spacing" textLength="8.7482" x="352.9897" y="512.8616">1</text><text fill="#34495E" font-family="Helvetica" font-size="13.75" lengthAdjust="spacing" textLength="24.3646" x="103.539" y="614.3003">1..*</text></g><!--link SessionDEnregistrement to SequenceDEcoute--><g class="link" data-entity-1="ent0008" data-entity-2="ent0010" data-link-type="dependency" data-source-line="106" id="lnk25"><path codeLine="106" d="M439.6333,524.1844 C378.6406,549.9313 279.6292,602.6625 319.4583,661.1458 C357.3281,716.7646 423.8678,740.7254 482.8438,752.2296" fill="none" id="SessionDEnregistrement-to-SequenceDEcoute" style="stroke:#34495E;stroke-width:1.1458;"/><polygon fill="#34495E" points="489.5917,753.5458,480.3474,747.0729,483.9685,752.4489,478.5924,756.07,489.5917,753.5458" style="stroke:#34495E;stroke-width:1.1458;"/><text fill="#34495E" font-family="Helvetica" font-size="13.75" lengthAdjust="spacing" textLength="56.4636" x="320.6042" y="649.2735">contient</text><text fill="#34495E" font-family="Helvetica" font-size="13.75" lengthAdjust="spacing" textLength="8.7482" x="415.937" y="545.4702">1</text><text fill="#34495E" font-family="Helvetica" font-size="13.75" lengthAdjust="spacing" textLength="24.3646" x="456.2456" y="749.7889">1..*</text></g><!--link SessionDEnregistrement to JournalDuCapteur--><g class="link" data-entity-1="ent0008" data-entity-2="ent0011" data-link-type="dependency" data-source-line="107" id="lnk26"><path codeLine="107" d="M483.3125,524.1844 C483.3125,550.275 483.3125,593.7365 483.3125,619.6438" fill="none" id="SessionDEnregistrement-to-JournalDuCapteur" style="stroke:#34495E;stroke-width:1.1458;"/><polygon fill="#34495E" points="483.3125,626.5188,487.8958,616.2063,483.3125,620.7896,478.7292,616.2063,483.3125,626.5188" style="stroke:#34495E;stroke-width:1.1458;"/><text fill="#34495E" font-family="Helvetica" font-size="13.75" lengthAdjust="spacing" textLength="66.2592" x="484.4583" y="580.5235">r&#233;f&#233;rence</text><text fill="#34495E" font-family="Helvetica" font-size="13.75" lengthAdjust="spacing" textLength="8.7482" x="474.0849" y="545.4702">1</text><text fill="#34495E" font-family="Helvetica" font-size="13.75" lengthAdjust="spacing" textLength="8.7482" x="473.7898" y="614.3488">1</text></g><!--link SessionDEnregistrement to ReleveClimatique--><g class="link" data-entity-1="ent0008" data-entity-2="ent0012" data-link-type="dependency" data-source-line="108" id="lnk27"><path codeLine="108" d="M509.025,524.1844 C549.3698,550.2063 621.3484,596.6102 661.6245,622.5862" fill="none" id="SessionDEnregistrement-to-ReleveClimatique" style="stroke:#34495E;stroke-width:1.1458;"/><polygon fill="#34495E" points="667.4021,626.3125,661.2199,616.8714,662.5874,623.2073,656.2515,624.5748,667.4021,626.3125" style="stroke:#34495E;stroke-width:1.1458;"/><text fill="#34495E" font-family="Helvetica" font-size="13.75" lengthAdjust="spacing" textLength="66.2592" x="615.0833" y="580.5235">r&#233;f&#233;rence</text><text fill="#34495E" font-family="Helvetica" font-size="13.75" lengthAdjust="spacing" textLength="8.7482" x="508.3147" y="545.4702">1</text><text fill="#34495E" font-family="Helvetica" font-size="13.75" lengthAdjust="spacing" textLength="26.2378" x="626.6469" y="614.0575">0..1</text></g><!--link EnregistrementOriginal to SequenceDEcoute--><g class="link" data-entity-1="ent0009" data-entity-2="ent0010" data-link-type="dependency" data-source-line="109" id="lnk28"><path codeLine="109" d="M125.8125,661.5583 C139.0583,677.5198 161.425,700.9979 186.5417,712.7083 C238.6771,737.0229 383.8935,750.6419 482.5497,757.4711" fill="none" id="EnregistrementOriginal-to-SequenceDEcoute" style="stroke:#34495E;stroke-width:1.1458;"/><polygon fill="#34495E" points="489.4083,757.9458,479.437,752.6613,483.6928,757.5502,478.8039,761.8061,489.4083,757.9458" style="stroke:#34495E;stroke-width:1.1458;"/><text fill="#34495E" font-family="Helvetica" font-size="13.75" lengthAdjust="spacing" textLength="80.6067" x="187.6875" y="709.4297">d&#233;coup&#233; en</text><text fill="#34495E" font-family="Helvetica" font-size="13.75" lengthAdjust="spacing" textLength="8.7482" x="120.8719" y="683.1224">1</text><text fill="#34495E" font-family="Helvetica" font-size="13.75" lengthAdjust="spacing" textLength="24.3646" x="456.3607" y="770.8583">1..*</text></g><!--link Passage to SelectionDEcoute--><g class="link" data-entity-1="ent0007" data-entity-2="ent0013" data-link-type="dependency" data-source-line="110" id="lnk29"><path codeLine="110" d="M854.5167,403.4135 C854.4938,417.1062 854.4708,437.2958 854.5625,454.8958 C854.7344,491.5167 855.1335,527.588 855.4085,550.6078" fill="none" id="Passage-to-SelectionDEcoute" style="stroke:#34495E;stroke-width:1.1458;"/><polygon fill="#34495E" points="855.4906,557.4823,859.9504,547.1158,855.4222,551.7535,850.7844,547.2253,855.4906,557.4823" style="stroke:#34495E;stroke-width:1.1458;"/><text fill="#34495E" font-family="Helvetica" font-size="13.75" lengthAdjust="spacing" textLength="88.8177" x="855.7083" y="451.6172">&#224; v&#233;rifier par</text><text fill="#34495E" font-family="Helvetica" font-size="13.75" lengthAdjust="spacing" textLength="8.7482" x="845.1828" y="425.1793">1</text><text fill="#34495E" font-family="Helvetica" font-size="13.75" lengthAdjust="spacing" textLength="26.2378" x="825.4362" y="545.6558">0..1</text></g><!--link SelectionDEcoute to SequenceDEcoute--><g class="link" data-entity-1="ent0013" data-entity-2="ent0010" data-link-type="dependency" data-source-line="111" id="lnk30"><path codeLine="111" d="M847.8708,592.6479 C838.2,611.3021 820.2104,641.7583 797.2708,661.1458 C748.7677,702.1438 687.53,728.1033 640.2988,744.2825" fill="none" id="SelectionDEcoute-to-SequenceDEcoute" style="stroke:#34495E;stroke-width:1.1458;"/><polygon fill="#34495E" points="633.7948,746.5104,645.0361,747.5045,639.2148,744.6538,642.0655,738.8325,633.7948,746.5104" style="stroke:#34495E;stroke-width:1.1458;"/><text fill="#34495E" font-family="Helvetica" font-size="13.75" lengthAdjust="spacing" textLength="62.5464" x="828.2083" y="649.2735">porte sur</text><text fill="#34495E" font-family="Helvetica" font-size="13.75" lengthAdjust="spacing" textLength="8.7482" x="835.7586" y="614.4749">1</text><text fill="#34495E" font-family="Helvetica" font-size="13.75" lengthAdjust="spacing" textLength="24.3646" x="626.8606" y="734.6704">1..*</text></g><!--link Passage to ResultatsIdentification--><g class="link" data-entity-1="ent0007" data-entity-2="ent0014" data-link-type="dependency" data-source-line="112" id="lnk31"><path codeLine="112" d="M893.4521,403.7229 C912.5188,412.5687 935.3896,424.4052 954.25,437.7083 C975.6656,452.8219 992.343,469.1793 1005.9669,483.8345" fill="none" id="Passage-to-ResultatsIdentification" style="stroke:#34495E;stroke-width:1.1458;"/><polygon fill="#34495E" points="1010.6479,488.8698,1006.9833,478.1962,1006.7471,484.6737,1000.2696,484.4375,1010.6479,488.8698" style="stroke:#34495E;stroke-width:1.1458;"/><text fill="#34495E" font-family="Helvetica" font-size="13.75" lengthAdjust="spacing" textLength="75.296" x="977.1667" y="451.6172">annot&#233; par</text><text fill="#34495E" font-family="Helvetica" font-size="13.75" lengthAdjust="spacing" textLength="8.7482" x="897.5484" y="425.2791">1</text><text fill="#34495E" font-family="Helvetica" font-size="13.75" lengthAdjust="spacing" textLength="26.2378" x="974.412" y="476.6384">0..1</text></g><!--link ResultatsIdentification to Observation--><g class="link" data-entity-1="ent0014" data-entity-2="ent0015" data-link-type="dependency" data-source-line="113" id="lnk32"><path codeLine="113" d="M1025.2917,524.1844 C1025.2917,550.275 1025.2917,593.7365 1025.2917,619.6438" fill="none" id="ResultatsIdentification-to-Observation" style="stroke:#34495E;stroke-width:1.1458;"/><polygon fill="#34495E" points="1025.2917,626.5188,1029.875,616.2063,1025.2917,620.7896,1020.7083,616.2063,1025.2917,626.5188" style="stroke:#34495E;stroke-width:1.1458;"/><text fill="#34495E" font-family="Helvetica" font-size="13.75" lengthAdjust="spacing" textLength="48.454" x="1026.4375" y="580.5235">agr&#232;ge</text><text fill="#34495E" font-family="Helvetica" font-size="13.75" lengthAdjust="spacing" textLength="8.7482" x="1016.0627" y="545.4702">1</text><text fill="#34495E" font-family="Helvetica" font-size="13.75" lengthAdjust="spacing" textLength="24.3646" x="996.3282" y="614.3488">1..*</text></g><!--link Observation to SequenceDEcoute--><g class="link" data-entity-1="ent0015" data-entity-2="ent0010" data-link-type="dependency" data-source-line="114" id="lnk33"><path codeLine="114" d="M995.8781,661.501 C966.9,676.9583 920.9521,699.6573 878.625,712.7083 C809.176,734.124 734.5544,746.2489 674.02,753.651" fill="none" id="Observation-to-SequenceDEcoute" style="stroke:#34495E;stroke-width:1.1458;"/><polygon fill="#34495E" points="667.1958,754.4854,677.9884,757.7832,672.8826,753.79,676.8758,748.6843,667.1958,754.4854" style="stroke:#34495E;stroke-width:1.1458;"/><text fill="#34495E" font-family="Helvetica" font-size="13.75" lengthAdjust="spacing" textLength="98.3112" x="925.6042" y="709.4297">d&#233;tect&#233;e dans</text><text fill="#34495E" font-family="Helvetica" font-size="13.75" lengthAdjust="spacing" textLength="24.3646" x="957.6206" y="683.0454">0..*</text><text fill="#34495E" font-family="Helvetica" font-size="13.75" lengthAdjust="spacing" textLength="8.7482" x="676.0747" y="750.763">1</text></g><!--link Observation to Taxon--><g class="link" data-entity-1="ent0015" data-entity-2="ent0016" data-link-type="dependency" data-source-line="115" id="lnk34"><path codeLine="115" d="M1031.3417,661.5125 C1039.6604,684.0625 1052.1522,717.9349 1060.448,740.4047" fill="none" id="Observation-to-Taxon" style="stroke:#34495E;stroke-width:1.1458;"/><polygon fill="#34495E" points="1062.8292,746.8542,1063.5571,735.5925,1060.8449,741.4796,1054.9578,738.7674,1062.8292,746.8542" style="stroke:#34495E;stroke-width:1.1458;"/><text fill="#34495E" font-family="Helvetica" font-size="13.75" lengthAdjust="spacing" textLength="106.6431" x="1051.6458" y="709.4297">class&#233;e comme</text><text fill="#34495E" font-family="Helvetica" font-size="13.75" lengthAdjust="spacing" textLength="24.3646" x="1005.2747" y="683.0608">0..*</text><text fill="#34495E" font-family="Helvetica" font-size="13.75" lengthAdjust="spacing" textLength="8.7482" x="1050.8289" y="734.6937">1</text></g><!--link Taxon to GroupeTaxonomique--><g class="link" data-entity-1="ent0016" data-entity-2="ent0017" data-link-type="dependency" data-source-line="116" id="lnk35"><path codeLine="116" d="M1068.8333,781.825 C1068.8333,804.375 1068.8333,837.8219 1068.8333,860.2917" fill="none" id="Taxon-to-GroupeTaxonomique" style="stroke:#34495E;stroke-width:1.1458;"/><polygon fill="#34495E" points="1068.8333,867.1667,1073.4167,856.8542,1068.8333,861.4375,1064.25,856.8542,1068.8333,867.1667" style="stroke:#34495E;stroke-width:1.1458;"/><text fill="#34495E" font-family="Helvetica" font-size="13.75" lengthAdjust="spacing" textLength="71.7377" x="1069.9792" y="829.7422">appartient</text><text fill="#34495E" font-family="Helvetica" font-size="13.75" lengthAdjust="spacing" textLength="24.3646" x="1040.6883" y="803.3733">1..*</text><text fill="#34495E" font-family="Helvetica" font-size="13.75" lengthAdjust="spacing" textLength="8.7482" x="1059.3078" y="855.0062">1</text></g><?plantuml-src bLRDSjis4BxhANQKWvnEhLfEt9deq1d7ajsaJUE9tDmXSYMX9W4M0ELCEtsN7grRdw5yiNu0A8gKhBezaLpiVll_WGFwS3MXHET5nevIfapGx79AvyEp4PsClYLMJZgsBuVq8rkws7wJCs8jP9OntbEXB6NS6z3TxGLPhHpKQCt6VGsn9L4wWmTaIoFja3wNJEc0bULydZ6DIJXdvBnqbd9XVotP0kf4PfOMSbaQk2HR6a25O1Sw4Pcq_98A3QcLhkHmQ7LfJnlKj4GqGm3DFj_GMWe2JihcD9LYQKHkXtP59pyOVIyfyuWlXxsLH05ocBEnFNilLI6WINObKlqWrP8M8hFSEaaBIQFHMLl22r5cxXercCdVc4QldZxyIUHCttEsPYSJqT99Cc7jPLqFVfTe5N3EzbNUYkH-QNIfqYkTQKClffVJg-dqG4qR97staiczOcjfD3nlgLmQenzg-rUlNx-vuFr37-kp2Z7JyrulkAIVdKH_X6Dqv_SU4QgAeLb8WJw6KaEcT4vYiP39gjhq_gWD-pECbXz2Mygrx9Emv2KJdlblUd7vPdBzzZfWgh__eaGO0-i8XaAjeHJ02wETJZGcia6-rHBUqq6rIJJg6h23R38DWWvuebCE3nHFArLjCBmtjpE8KhQ9aGMoQQ2dol1IManudQuFpUTGROpqCBbEgqSCv3T-8wpKgZ7z81EZWyrE1najOCagyRPpWPcb0ieedXTOpBUSexukP9wAMB0S--3tox9PosINzwstNF91wRQWIuyfGeeD6XPpcr6Ena6-Gceug3OOIOIua0f299FA9736sgUANWhdiqEGJZXeFcXplyZqGwk_646e7FY8hOw7asddA3PanRbKP4GYbGzqhRCI--EqGxyRz3r3RUHIAf45yExPn_eeraFxpIG_YvADBqDfOZqmB2lK7Io7AV2rsYLIRK1JwD7UICquYhTJzII-H4-_xFmqeEz1PpueC5SY2hy-0RCMJyghA6nL9CIuhXvLoCgYfmPZPqDFTGwMzEHSRHmdpW_npjKdpXXT0qV875r3qC5L4FDL8-owoXait4P15J90nuvsor3BstN84SWAc-MBWMsrk4VAUc1Sk4bQuI494AL0IkbWInznlEeuw-DtdRDkk0jjaCOk_zs0oxpGnZNkFixzsaI4zg8upWjRZttp6OVVYIzGlXEfC38LaNBcejxBjZmgwje3khUlspxQ1dGNZ9vW93zA6G9LzJjsK8cap8J4Vbv_sXNm1ZT3mT6xpfl-Hl7TJXe7LAvPb14I4BqsV_T7VJez_GxFuV2hVeUEnxX_hQqU4LbRl6VH8TcnRxoJdbKwyiRcBDhKh3N6XIjnPmpq_9VmTzBhaEs-fyPA-1AdfNJ7zFirzVeK37XrQzhME497umRxYC9UL4U8frM9_uQppop_1w1_o27ZpaNp70BQWjS3TkY27CdqsJpIm1m5Te7LOIUYwmD26LFrv_RUmTyVYAzteFEivz1y_sjvpEqndXdxErFxzVMEZsdj-M_J302Mfdh4bTAMrkE_cy0dIbLpUVZd_ZVZo27Z-1Ve3V2FdtClYkk8jhg7j83u2gGMvkiV?></g></svg>